<svg width="800" height="180" viewBox="0 0 800 180" xmlns="http://www.w3.org/2000/svg">
  <!-- Staka logo shield -->
  <rect x="20" y="20" width="140" height="140" rx="20" ry="20" fill="#C84C73"/>
  
  <!-- Shield lines -->
  <rect x="40" y="40" width="60" height="8" fill="white"/>
  <rect x="40" y="55" width="60" height="8" fill="white"/>
  <rect x="40" y="70" width="60" height="8" fill="white"/>
  <rect x="40" y="85" width="60" height="8" fill="white"/>
  
  <!-- Shield pen/pencil -->
  <rect x="115" y="40" width="8" height="80" fill="white"/>
  <rect x="110" y="125" width="18" height="12" fill="white"/>
  
  <!-- Staka text -->
  <text x="190" y="120" font-family="Arial, sans-serif" font-size="82" font-weight="bold" fill="#2563EB">Staka</text>
  
  <!-- ENTREMISES text -->
  <text x="580" y="60" font-family="Arial, sans-serif" font-size="24" font-weight="normal" fill="#333">ENTREMISES</text>
  
  <!-- Sunburst icon -->
  <g transform="translate(720, 40)">
    <!-- Sunburst rays -->
    <g stroke="#333" stroke-width="2" opacity="0.7">
      <line x1="0" y1="-15" x2="0" y2="-25"/>
      <line x1="10.6" y1="-10.6" x2="17.7" y2="-17.7"/>
      <line x1="15" y1="0" x2="25" y2="0"/>
      <line x1="10.6" y1="10.6" x2="17.7" y2="17.7"/>
      <line x1="0" y1="15" x2="0" y2="25"/>
      <line x1="-10.6" y1="10.6" x2="-17.7" y2="17.7"/>
      <line x1="-15" y1="0" x2="-25" y2="0"/>
      <line x1="-10.6" y1="-10.6" x2="-17.7" y2="-17.7"/>
    </g>
    <!-- Center circle -->
    <circle cx="0" cy="0" r="8" fill="#333"/>
  </g>
  
  <!-- EDITIONS text -->
  <text x="580" y="90" font-family="Arial, sans-serif" font-size="16" font-weight="300" fill="#666" letter-spacing="2px">ÉDITIONS</text>
</svg>